<svg width="80" height="80" viewBox="0 0 80 80" fill="none" xmlns="http://www.w3.org/2000/svg">
  <circle cx="40" cy="40" r="40" fill="#FEE5E3"/>
  <path d="M51.4286 54.2857H28.5714C27.1429 54.2857 26 55.4286 26 56.8571C26 58.2857 27.1429 59.4286 28.5714 59.4286H51.4286C52.8571 59.4286 54 58.2857 54 56.8571C54 55.4286 52.8571 54.2857 51.4286 54.2857ZM28.5714 49.1429H30.7143V28.5714H26V33.7143H28.5714V49.1429ZM39.4286 49.1429H41.5714V33.7143H44.1429V49.1429H46.2857V28.5714H39.4286V49.1429ZM33.7143 28.5714V44H36.2857V49.1429H38.4286V28.5714H33.7143ZM49.2857 49.1429H51.4286V33.7143H54V28.5714H49.2857V49.1429Z" fill="#FF6B6B"/>
</svg>
